<svg xmlns="http://www.w3.org/2000/svg" xmlns:xlink="http://www.w3.org/1999/xlink" viewBox="0 0 110 100">
<defs>
  <filter id="glow" x="-40%" y="-40%" width="180%" height="180%">
    <feGaussianBlur stdDeviation="2.4"/>
  </filter>
  <g id="seg" fill="#ffc966" stroke="none">
    <g >
    <path d="M28 16 Q41 -2 56 14 L56 16.5 L28 16.5 Z" />
    <rect x="50" y="13.5" width="17" height="4" rx="2" />
    <rect x="30" y="17.5" width="24" height="17" rx="9" />
    </g>
    <rect x="38" y="33" width="8" height="7" rx="2" />
    <rect x="28" y="39" width="30" height="12" rx="5" />
    <path d="M31 50 L55 50 L53 71 Q43 74 33 71 Z" />
    <rect x="21" y="43" width="7" height="22" rx="3.5" transform="rotate(8 24.5 43)"/>
    <rect x="57" y="40.5" width="30" height="7" rx="3.5" transform="rotate(58 57 44)"/>
    <path d="M60 58 q5 -4 9 0 q3 5 -1 9 q-5 3 -9 -1 q-3 -4 1 -8 z" />
    <rect x="32" y="72" width="9" height="15" rx="3" />
    <rect x="45" y="72" width="9" height="15" rx="3" />
    <rect x="31" y="86" width="12" height="4" rx="2" />
    <rect x="44" y="86" width="13" height="4" rx="2" />

  </g>
  <mask id="ink" maskUnits="userSpaceOnUse" x="0" y="0" width="110" height="100">
    <g fill="#fff" stroke="none">
    <g >
    <path d="M28 16 Q41 -2 56 14 L56 16.5 L28 16.5 Z" />
    <rect x="50" y="13.5" width="17" height="4" rx="2" />
    <rect x="30" y="17.5" width="24" height="17" rx="9" />
    </g>
    <rect x="38" y="33" width="8" height="7" rx="2" />
    <rect x="28" y="39" width="30" height="12" rx="5" />
    <path d="M31 50 L55 50 L53 71 Q43 74 33 71 Z" />
    <rect x="21" y="43" width="7" height="22" rx="3.5" transform="rotate(8 24.5 43)"/>
    <rect x="57" y="40.5" width="30" height="7" rx="3.5" transform="rotate(58 57 44)"/>
    <path d="M60 58 q5 -4 9 0 q3 5 -1 9 q-5 3 -9 -1 q-3 -4 1 -8 z" />
    <rect x="32" y="72" width="9" height="15" rx="3" />
    <rect x="45" y="72" width="9" height="15" rx="3" />
    <rect x="31" y="86" width="12" height="4" rx="2" />
    <rect x="44" y="86" width="13" height="4" rx="2" />

    </g>
  </mask>
</defs>
<use xlink:href="#seg" filter="url(#glow)" opacity="0.85"/>
<use xlink:href="#seg"/>
<g mask="url(#ink)">
    <circle cx="48.5" cy="25" r="1.7"  fill="#120d09"/>

    <path d="M58 60 L62 56" fill="none" stroke="#120d09" stroke-width="2.2" stroke-linecap="round" stroke-linejoin="round" class="seam"/>
    <path d="M27 16.8 L68 16.8" fill="none" stroke="#120d09" stroke-width="2.2" stroke-linecap="round" stroke-linejoin="round" class="seam"/>
    <path d="M29 33.5 L55 33.5" fill="none" stroke="#120d09" stroke-width="2.2" stroke-linecap="round" stroke-linejoin="round" class="seam"/>
    <path d="M27 39.5 L59 39.5" fill="none" stroke="#120d09" stroke-width="2.2" stroke-linecap="round" stroke-linejoin="round" class="seam"/>
    <path d="M29 50 L57 50" fill="none" stroke="#120d09" stroke-width="2.2" stroke-linecap="round" stroke-linejoin="round" class="seam"/>
    <path d="M53.6 47.9 L62.0 42.6" fill="none" stroke="#120d09" stroke-width="2.2" stroke-linecap="round" stroke-linejoin="round" class="seam"/>
    <path d="M21.5 44 L28.5 44" fill="none" stroke="#120d09" stroke-width="2.2" stroke-linecap="round" stroke-linejoin="round" class="seam"/>
    <path d="M43 71 L43 87" fill="none" stroke="#120d09" stroke-width="2.2" stroke-linecap="round" stroke-linejoin="round" class="seam"/>
    <path d="M30 71.5 L56 71.5" fill="none" stroke="#120d09" stroke-width="2.2" stroke-linecap="round" stroke-linejoin="round" class="seam"/>
    <path d="M30 86 L58 86" fill="none" stroke="#120d09" stroke-width="2.2" stroke-linecap="round" stroke-linejoin="round" class="seam"/>

</g>
</svg>
