<svg xmlns="http://www.w3.org/2000/svg" xmlns:xlink="http://www.w3.org/1999/xlink" viewBox="0 0 100 56">
<defs>
  <filter id="glow" x="-40%" y="-40%" width="180%" height="180%">
    <feGaussianBlur stdDeviation="2.6"/>
  </filter>
  <g id="seg" fill="#ffc966" stroke="none">
    <path d="M22 53 C10.5 53 5.5 42 11.5 30.5 C21 21.5 37 17.5 46 20.5 C53.5 25 55.5 40 55.5 53 Z" />
    <rect x="46" y="33" width="9.5" height="20" rx="3.5" />
    <rect x="52" y="35" width="21" height="7.0" rx="2.75" transform="rotate(-6 52 37.5)"/>
    <circle cx="54" cy="17" r="11.5" />
    <path d="M46 10 L44 -0.5 L52 7 Z" />
    <path d="M57 7.5 L63 -1 L64 10 Z" />
    <path d="M14 50 Q2 45 5 33 Q6 28 11 29" fill="none" stroke="#ffc966" stroke-width="6" stroke-linecap="round" stroke-linejoin="round" />
    <rect x="72.5" y="4" width="4.5" height="41" rx="2" />
    <ellipse cx="75" cy="49" rx="12" ry="4.5" />

  </g>
  <mask id="ink" maskUnits="userSpaceOnUse" x="0" y="0" width="100" height="56">
    <g fill="#fff" stroke="none">
    <path d="M22 53 C10.5 53 5.5 42 11.5 30.5 C21 21.5 37 17.5 46 20.5 C53.5 25 55.5 40 55.5 53 Z" />
    <rect x="46" y="33" width="9.5" height="20" rx="3.5" />
    <rect x="52" y="35" width="21" height="7.0" rx="2.75" transform="rotate(-6 52 37.5)"/>
    <circle cx="54" cy="17" r="11.5" />
    <path d="M46 10 L44 -0.5 L52 7 Z" />
    <path d="M57 7.5 L63 -1 L64 10 Z" />
    <path d="M14 50 Q2 45 5 33 Q6 28 11 29" fill="none" stroke="#fff" stroke-width="6" stroke-linecap="round" stroke-linejoin="round" />
    <rect x="72.5" y="4" width="4.5" height="41" rx="2" />
    <ellipse cx="75" cy="49" rx="12" ry="4.5" />

    </g>
  </mask>
</defs>
<use xlink:href="#seg" filter="url(#glow)" opacity="0.85"/>
<use xlink:href="#seg"/>
<g mask="url(#ink)">
    <circle cx="57.5" cy="15.5" r="2.2"  fill="#120d09"/>


</g>
</svg>
